<svg version="1.1" id="Layer_1" xmlns="http://www.w3.org/2000/svg" xmlns:xlink="http://www.w3.org/1999/xlink" x="0px" y="0px"
	 width="100%" viewBox="0 0 247 67" enable-background="new 0 0 247 67" xml:space="preserve">
<path fill="#000100" opacity="1.000000" stroke="none" 
	d="
M248.000000,29.000000 
	C248.000000,41.976463 248.000000,54.952927 248.000000,68.000000 
	C180.645782,68.000000 113.291550,68.000000 45.267536,67.618881 
	C45.576530,66.824699 46.548939,66.395721 47.535122,66.001190 
	C53.404629,63.653111 59.277313,61.312984 65.553116,58.958202 
	C66.303459,57.651379 67.109200,56.283382 66.916740,55.074276 
	C66.052208,49.642841 64.904037,44.256557 63.763283,38.506958 
	C61.104076,32.744968 58.977074,27.063568 55.876904,21.975071 
	C50.729561,13.526449 44.131847,6.321025 35.011375,1.645403 
	C35.005337,1.430314 35.000000,1.000000 35.000000,1.000000 
	C106.000015,1.000000 177.000031,1.000000 248.000000,1.000000 
	C248.000000,9.092100 248.000000,17.077372 247.535950,25.531704 
	C243.466553,26.000769 239.861221,26.000769 235.886139,26.000769 
	C235.886139,21.084391 235.886139,16.666164 235.886139,12.252966 
	C232.417923,12.252966 229.347336,12.252966 225.924179,12.252966 
	C225.924179,16.929171 225.924179,21.363066 225.924179,26.153345 
	C219.302002,25.334583 212.967850,24.621933 208.167068,31.682381 
	C208.034378,29.149555 207.955795,27.649515 207.884384,26.286469 
	C204.369583,26.286469 201.289001,26.286469 198.273193,26.286469 
	C198.273193,38.307571 198.273193,50.041077 198.273193,61.725952 
	C201.624100,61.725952 204.696442,61.725952 207.999252,61.725952 
	C207.999252,57.650875 207.790207,53.832462 208.046188,50.045479 
	C208.475372,43.695652 209.885010,37.905796 216.992538,35.443684 
	C223.255325,33.274197 225.998795,34.945061 226.000748,41.391529 
	C226.001343,43.389141 225.905319,45.392258 226.019882,47.383286 
	C226.313873,52.492126 227.903473,57.425823 232.610977,59.647144 
	C236.496490,61.480579 241.169769,61.644558 245.799744,62.612225 
	C245.799744,58.437531 245.799744,55.338100 245.799744,52.261059 
	C234.637543,51.134464 235.665359,49.113766 236.240158,36.252346 
	C239.541794,34.410469 242.445770,32.848801 245.283875,31.175396 
	C246.272934,30.592213 247.099319,29.733099 248.000000,29.000000 
M146.666748,61.994881 
	C149.415634,61.994881 152.164505,61.994881 154.999191,61.994881 
	C154.999191,54.476784 154.847946,47.646690 155.046890,40.826813 
	C155.206833,35.343910 153.717941,30.901424 148.796066,27.959690 
	C143.247681,24.643505 137.671127,24.359623 131.961349,27.512342 
	C131.297882,27.878683 130.215622,28.456047 129.819458,28.193445 
	C122.355095,23.245716 114.122543,25.769350 106.316177,24.991255 
	C106.316177,37.715698 106.316177,49.792793 106.316177,61.675411 
	C109.713448,61.675411 112.789322,61.675411 115.999184,61.675411 
	C115.999184,55.199059 116.269577,49.029736 115.907471,42.897762 
	C115.651047,38.555519 117.175156,36.052967 121.614723,34.972992 
	C130.314728,42.574516 123.577980,53.233002 126.698792,61.999168 
	C127.844048,61.999168 129.032715,61.850506 130.171768,62.025272 
	C134.751846,62.728004 136.522415,61.022785 136.086716,56.265762 
	C135.678040,51.803497 136.219574,47.260216 135.931473,42.779041 
	C135.688431,38.999027 136.719009,36.344761 140.576218,35.301842 
	C144.156677,36.342796 145.173950,38.894749 145.099701,42.702335 
	C144.974762,49.107960 145.473007,55.525734 146.666748,61.994881 
M194.886475,27.025803 
	C191.307419,26.845346 187.388428,24.455273 184.206070,28.477545 
	C173.038895,22.363705 161.592529,26.496771 157.147888,37.060356 
	C154.161819,44.157364 155.942078,51.122211 161.320297,56.751926 
	C167.006561,62.704086 174.025467,63.045174 181.455811,60.818054 
	C182.608917,60.472435 183.794891,59.491653 184.834976,59.652050 
	C188.079910,60.152481 191.262146,61.059483 195.172867,61.973434 
	C195.172867,49.742691 195.172867,38.826347 194.886475,27.025803 
M104.503754,18.002455 
	C100.449547,13.769950 95.479500,11.853965 89.637611,11.989244 
	C82.474350,12.155121 75.883667,16.133692 74.172966,21.424572 
	C72.262741,27.332592 75.032455,33.604092 81.553001,38.032661 
	C85.020607,40.387756 88.669708,42.507233 91.934219,45.112335 
	C93.050148,46.002853 93.243553,48.049408 93.858452,49.567780 
	C92.541641,50.045437 91.025375,51.198711 89.943848,50.879410 
	C86.041626,49.727345 82.285789,48.079437 79.009201,46.823643 
	C76.881279,48.856594 74.519485,51.112984 71.078285,54.400597 
	C75.968857,56.921528 80.336143,60.276703 85.230438,61.469563 
	C95.968819,64.086769 105.990868,57.347282 104.953743,46.393570 
	C104.429596,40.857792 100.046860,37.957615 96.048584,35.049717 
	C91.958725,32.075226 87.624863,29.436245 83.269119,26.565577 
	C89.200737,20.004423 89.512428,20.048536 98.903168,27.966082 
	C101.229927,24.994680 105.906616,23.670763 104.503754,18.002455 
z"/>
<path fill="#FFFFFF" opacity="1.000000" stroke="none" 
	d="
M248.000000,28.625000 
	C247.099319,29.733099 246.272934,30.592213 245.283875,31.175396 
	C242.445770,32.848801 239.541794,34.410469 236.240158,36.252346 
	C235.665359,49.113766 234.637543,51.134464 245.799744,52.261059 
	C245.799744,55.338100 245.799744,58.437531 245.799744,62.612225 
	C241.169769,61.644558 236.496490,61.480579 232.610977,59.647144 
	C227.903473,57.425823 226.313873,52.492126 226.019882,47.383286 
	C225.905319,45.392258 226.001343,43.389141 226.000748,41.391529 
	C225.998795,34.945061 223.255325,33.274197 216.992538,35.443684 
	C209.885010,37.905796 208.475372,43.695652 208.046188,50.045479 
	C207.790207,53.832462 207.999252,57.650875 207.999252,61.725952 
	C204.696442,61.725952 201.624100,61.725952 198.273193,61.725952 
	C198.273193,50.041077 198.273193,38.307571 198.273193,26.286469 
	C201.289001,26.286469 204.369583,26.286469 207.884384,26.286469 
	C207.955795,27.649515 208.034378,29.149555 208.167068,31.682381 
	C212.967850,24.621933 219.302002,25.334583 225.924179,26.153345 
	C225.924179,21.363066 225.924179,16.929171 225.924179,12.252966 
	C229.347336,12.252966 232.417923,12.252966 235.886139,12.252966 
	C235.886139,16.666164 235.886139,21.084391 235.886139,26.000769 
	C239.861221,26.000769 243.466553,26.000769 247.535950,26.000385 
	C248.000000,26.750000 248.000000,27.500000 248.000000,28.625000 
z"/>
<path fill="#0A92D1" opacity="1.000000" stroke="none" 
	d="
M65.148933,58.970188 
	C59.277313,61.312984 53.404629,63.653111 47.535122,66.001190 
	C46.548939,66.395721 45.576530,66.824699 44.798878,67.618881 
	C37.312424,68.000000 29.624847,68.000000 21.745073,67.707741 
	C20.717381,66.888840 19.881887,66.362198 19.042881,65.431473 
	C21.045527,58.285416 23.051687,51.543446 25.356760,44.984467 
	C34.185543,48.977566 42.583450,53.134647 51.301369,56.450314 
	C55.613007,58.090153 60.514385,58.179382 65.148933,58.970188 
z"/>
<path fill="#17AB4B" opacity="1.000000" stroke="none" 
	d="
M34.583496,1.000000 
	C35.000000,1.000000 35.005337,1.430314 35.022644,2.016472 
	C36.364803,5.250441 37.766949,7.862787 39.000896,10.552302 
	C43.906536,21.244665 44.936008,32.411957 42.616264,43.976158 
	C41.835396,43.976990 41.388790,43.929768 40.950668,43.524086 
	C38.331738,39.150089 35.704319,35.134544 33.001381,31.027979 
	C32.925865,30.936956 32.770435,30.758648 32.855545,30.424278 
	C32.135586,28.740482 31.602270,27.080385 30.477470,26.096470 
	C26.069260,22.240408 21.474396,18.597729 17.102329,14.577328 
	C19.754045,11.766886 22.281706,9.283240 24.740793,6.733461 
	C26.540548,4.867333 28.250193,2.914299 30.000000,1.000000 
	C31.388998,1.000000 32.777996,1.000000 34.583496,1.000000 
z"/>
<path fill="#000000" opacity="1.000000" stroke="none" 
	d="
M29.531342,1.000000 
	C28.250193,2.914299 26.540548,4.867333 24.740793,6.733461 
	C22.281706,9.283240 19.754045,11.766886 16.790962,14.731227 
	C10.660069,21.607733 6.526819,28.881371 3.864585,37.042007 
	C3.383734,38.515972 1.978480,39.688374 1.000000,41.000000 
	C1.000000,27.751793 1.000000,14.503585 1.000000,1.000000 
	C10.352681,1.000000 19.707682,1.000000 29.531342,1.000000 
z"/>
<path fill="#16AB4C" opacity="1.000000" stroke="none" 
	d="
M25.057846,44.801472 
	C23.051687,51.543446 21.045527,58.285416 18.642620,65.491867 
	C12.497251,64.304230 6.748625,62.652115 1.000000,61.000000 
	C1.000000,59.285641 1.000000,57.571285 1.367126,55.554508 
	C2.486938,53.483467 3.239624,51.714844 3.998257,49.974930 
	C4.004202,50.003639 3.945601,50.001606 4.372892,50.097061 
	C5.208611,48.948021 5.617039,47.703522 6.188394,46.243515 
	C7.387154,45.026825 8.422988,44.025642 9.791468,43.250984 
	C10.728802,43.025787 11.333491,42.574062 12.246406,41.970039 
	C18.246534,36.218040 24.730042,32.065365 32.770435,30.758648 
	C32.770435,30.758648 32.925865,30.936956 32.842766,31.330845 
	C30.523123,35.773293 28.286579,39.821857 25.843161,43.984776 
	C25.326632,44.237095 25.133818,44.471207 25.057846,44.801472 
z"/>
<path fill="#86C441" opacity="1.000000" stroke="none" 
	d="
M32.855545,30.424278 
	C24.730042,32.065365 18.246534,36.218040 11.894407,41.927551 
	C10.642397,42.366386 10.050609,42.695423 9.458822,43.024456 
	C8.422988,44.025642 7.387154,45.026825 5.940505,46.503105 
	C5.001660,47.986008 4.473631,48.993805 3.945602,50.001606 
	C3.945601,50.001606 4.004202,50.003639 3.705544,50.075596 
	C2.604590,50.765034 1.802295,51.382519 1.000000,52.000000 
	C1.000000,48.638714 1.000000,45.277424 1.000000,41.458069 
	C1.978480,39.688374 3.383734,38.515972 3.864585,37.042007 
	C6.526819,28.881371 10.660069,21.607733 16.637510,15.029675 
	C21.474396,18.597729 26.069260,22.240408 30.477470,26.096470 
	C31.602270,27.080385 32.135586,28.740482 32.855545,30.424278 
z"/>
<path fill="#000000" opacity="1.000000" stroke="none" 
	d="
M1.000000,61.497910 
	C6.748625,62.652115 12.497251,64.304230 18.646135,65.895950 
	C19.881887,66.362198 20.717381,66.888840 21.276438,67.707741 
	C14.333107,68.000000 7.666214,68.000000 1.000000,68.000000 
	C1.000000,65.920975 1.000000,63.958393 1.000000,61.497910 
z"/>
<path fill="#000000" opacity="1.000000" stroke="none" 
	d="
M1.000000,52.375000 
	C1.802295,51.382519 2.604590,50.765034 3.699598,50.046886 
	C3.239624,51.714844 2.486938,53.483467 1.367126,55.126045 
	C1.000000,54.250000 1.000000,53.500000 1.000000,52.375000 
z"/>
<path fill="#FFFFFF" opacity="1.000000" stroke="none" 
	d="
M146.187927,61.966640 
	C145.473007,55.525734 144.974762,49.107960 145.099701,42.702335 
	C145.173950,38.894749 144.156677,36.342796 140.576218,35.301842 
	C136.719009,36.344761 135.688431,38.999027 135.931473,42.779041 
	C136.219574,47.260216 135.678040,51.803497 136.086716,56.265762 
	C136.522415,61.022785 134.751846,62.728004 130.171768,62.025272 
	C129.032715,61.850506 127.844048,61.999168 126.698792,61.999168 
	C123.577980,53.233002 130.314728,42.574516 121.614723,34.972992 
	C117.175156,36.052967 115.651047,38.555519 115.907471,42.897762 
	C116.269577,49.029736 115.999184,55.199059 115.999184,61.675411 
	C112.789322,61.675411 109.713448,61.675411 106.316177,61.675411 
	C106.316177,49.792793 106.316177,37.715698 106.316177,24.991255 
	C114.122543,25.769350 122.355095,23.245716 129.819458,28.193445 
	C130.215622,28.456047 131.297882,27.878683 131.961349,27.512342 
	C137.671127,24.359623 143.247681,24.643505 148.796066,27.959690 
	C153.717941,30.901424 155.206833,35.343910 155.046890,40.826813 
	C154.847946,47.646690 154.999191,54.476784 154.999191,61.994881 
	C152.164505,61.994881 149.415634,61.994881 146.187927,61.966640 
z"/>
<path fill="#FEFEFE" opacity="1.000000" stroke="none" 
	d="
M195.029663,27.467905 
	C195.172867,38.826347 195.172867,49.742691 195.172867,61.973434 
	C191.262146,61.059483 188.079910,60.152481 184.834976,59.652050 
	C183.794891,59.491653 182.608917,60.472435 181.455811,60.818054 
	C174.025467,63.045174 167.006561,62.704086 161.320297,56.751926 
	C155.942078,51.122211 154.161819,44.157364 157.147888,37.060356 
	C161.592529,26.496771 173.038895,22.363705 184.206070,28.477545 
	C187.388428,24.455273 191.307419,26.845346 195.029663,27.467905 
M181.041092,39.481491 
	C178.267944,38.015247 175.296768,35.131508 172.777603,35.483433 
	C170.283569,35.831848 167.277863,39.069439 166.250778,41.719604 
	C164.947418,45.082584 166.161102,48.905128 169.826340,50.944332 
	C173.069885,52.748924 176.322174,52.543194 179.291306,50.169792 
	C182.734528,47.417423 183.442276,44.021976 181.041092,39.481491 
z"/>
<path fill="#FFFFFF" opacity="1.000000" stroke="none" 
	d="
M104.759262,18.265274 
	C105.906616,23.670763 101.229927,24.994680 98.903168,27.966082 
	C89.512428,20.048536 89.200737,20.004423 83.269119,26.565577 
	C87.624863,29.436245 91.958725,32.075226 96.048584,35.049717 
	C100.046860,37.957615 104.429596,40.857792 104.953743,46.393570 
	C105.990868,57.347282 95.968819,64.086769 85.230438,61.469563 
	C80.336143,60.276703 75.968857,56.921528 71.078285,54.400597 
	C74.519485,51.112984 76.881279,48.856594 79.009201,46.823643 
	C82.285789,48.079437 86.041626,49.727345 89.943848,50.879410 
	C91.025375,51.198711 92.541641,50.045437 93.858452,49.567780 
	C93.243553,48.049408 93.050148,46.002853 91.934219,45.112335 
	C88.669708,42.507233 85.020607,40.387756 81.553001,38.032661 
	C75.032455,33.604092 72.262741,27.332592 74.172966,21.424572 
	C75.883667,16.133692 82.474350,12.155121 89.637611,11.989244 
	C95.479500,11.853965 100.449547,13.769950 104.759262,18.265274 
z"/>
<path fill="#5FBA47" opacity="1.000000" stroke="none" 
	d="
M42.950527,43.928108 
	C44.936008,32.411957 43.906536,21.244665 39.000896,10.552302 
	C37.766949,7.862787 36.364803,5.250441 35.028683,2.231561 
	C44.131847,6.321025 50.729561,13.526449 55.876904,21.975071 
	C58.977074,27.063568 61.104076,32.744968 63.389374,38.545708 
	C56.390408,40.597023 49.670467,42.262566 42.950527,43.928108 
z"/>
<path fill="#62BBE1" opacity="1.000000" stroke="none" 
	d="
M42.616264,43.976158 
	C49.670467,42.262566 56.390408,40.597023 63.484261,38.892731 
	C64.904037,44.256557 66.052208,49.642841 66.916740,55.074276 
	C67.109200,56.283382 66.303459,57.651379 65.553116,58.958202 
	C60.514385,58.179382 55.613007,58.090153 51.301369,56.450314 
	C42.583450,53.134647 34.185543,48.977566 25.356758,44.984467 
	C25.133818,44.471207 25.326632,44.237095 26.273540,44.040730 
	C31.587923,43.949066 36.265053,43.915806 40.942184,43.882545 
	C41.388790,43.929768 41.835396,43.976990 42.616264,43.976158 
z"/>
<path fill="#000000" opacity="1.000000" stroke="none" 
	d="
M40.950668,43.524086 
	C36.265053,43.915806 31.587923,43.949066 26.480413,43.926373 
	C28.286579,39.821857 30.523123,35.773293 32.918282,31.421867 
	C35.704319,35.134544 38.331738,39.150089 40.950668,43.524086 
z"/>
<path fill="#000000" opacity="1.000000" stroke="none" 
	d="
M4.372892,50.097061 
	C4.473631,48.993805 5.001660,47.986008 5.777578,46.718613 
	C5.617039,47.703522 5.208611,48.948021 4.372892,50.097061 
z"/>
<path fill="#000000" opacity="1.000000" stroke="none" 
	d="
M9.791467,43.250984 
	C10.050609,42.695423 10.642397,42.366386 11.586183,42.079842 
	C11.333491,42.574062 10.728802,43.025787 9.791467,43.250984 
z"/>
<path fill="#000000" opacity="1.000000" stroke="none" 
	d="
M181.307495,39.769630 
	C183.442276,44.021976 182.734528,47.417423 179.291306,50.169792 
	C176.322174,52.543194 173.069885,52.748924 169.826340,50.944332 
	C166.161102,48.905128 164.947418,45.082584 166.250778,41.719604 
	C167.277863,39.069439 170.283569,35.831848 172.777603,35.483433 
	C175.296768,35.131508 178.267944,38.015247 181.307495,39.769630 
z"/>
</svg>